<?xml version="1.0" standalone="no"?>
<!DOCTYPE svg PUBLIC "-//W3C//DTD SVG 20010904//EN"
 "http://www.w3.org/TR/2001/REC-SVG-20010904/DTD/svg10.dtd">
<svg version="1.0" xmlns="http://www.w3.org/2000/svg"
 width="300.000000pt" height="300.000000pt" viewBox="0 0 300.000000 300.000000"
 preserveAspectRatio="xMidYMid meet">
<metadata>
Created by potrace 1.10, written by Peter Selinger 2001-2011
</metadata>
<g transform="translate(0.000000,300.000000) scale(0.100000,-0.100000)"
fill="#000000" stroke="none">
<path d="M1260 2979 c-300 -48 -570 -183 -793 -399 -141 -136 -222 -244 -301
-405 -103 -206 -144 -356 -152 -540 -4 -98 -3 -99 11 -56 8 24 24 96 35 160
84 470 369 855 789 1066 108 54 289 111 427 134 66 12 138 27 160 35 l39 15
-80 -1 c-44 0 -105 -4 -135 -9z"/>
<path d="M1563 2975 c21 -8 93 -24 160 -36 323 -57 580 -186 797 -399 228
-224 362 -482 419 -807 12 -67 28 -139 36 -160 15 -37 15 -35 11 62 -7 173
-48 325 -136 511 -69 146 -151 264 -270 387 -136 141 -244 222 -405 301 -208
103 -356 144 -545 152 -101 4 -104 4 -67 -11z"/>
<path d="M1369 2801 c-506 -53 -943 -402 -1107 -886 -46 -133 -62 -245 -62
-422 0 -297 79 -537 257 -775 190 -256 471 -434 798 -504 111 -24 379 -24 490
0 470 101 843 428 989 867 54 161 66 239 66 413 0 178 -19 296 -70 441 -130
367 -429 666 -798 799 -157 56 -393 84 -563 67z m337 -52 c154 -23 349 -99
489 -192 293 -193 498 -509 556 -856 14 -85 14 -317 0 -402 -89 -536 -514
-961 -1050 -1050 -85 -14 -317 -14 -402 0 -536 89 -961 514 -1050 1050 -14 85
-14 317 0 402 48 288 201 563 419 752 287 250 653 354 1038 296z"/>
<path d="M2025 1992 c-16 -11 -187 -178 -380 -371 l-350 -351 -160 159 c-98
98 -171 162 -188 166 -83 21 -161 -62 -136 -148 6 -22 70 -93 206 -230 109
-109 210 -205 225 -213 41 -22 81 -17 124 15 21 16 215 206 430 422 414 417
411 413 392 485 -18 69 -104 104 -163 66z m108 -54 c9 -11 17 -34 17 -51 0
-28 -45 -76 -397 -430 -219 -219 -410 -405 -425 -413 -15 -8 -38 -12 -51 -8
-13 3 -115 96 -226 208 -171 172 -201 207 -201 232 0 46 25 74 67 74 33 0 49
-12 172 -133 148 -145 185 -177 210 -177 8 0 173 157 366 349 192 193 364 357
380 365 35 18 63 13 88 -16z"/>
<path d="M13 1363 c10 -176 50 -326 137 -509 69 -146 151 -264 270 -387 136
-141 244 -222 405 -301 206 -103 356 -144 540 -152 l100 -4 -60 19 c-33 10
-112 29 -175 40 -586 110 -1042 559 -1159 1142 -37 182 -53 249 -58 249 -3 0
-3 -44 0 -97z"/>
<path d="M2972 1423 c-7 -23 -21 -90 -32 -150 -77 -427 -290 -758 -636 -989
-158 -105 -340 -178 -535 -215 -63 -12 -141 -30 -174 -40 l-60 -19 100 4 c228
9 481 97 701 242 110 73 285 241 370 354 171 230 295 581 282 800 l-3 55 -13
-42z"/>
</g>
</svg>
